<svg xmlns="http://www.w3.org/2000/svg" xmlns:xlink="http://www.w3.org/1999/xlink" viewBox="0 0 1116.93 982.82"><defs><style>.cls-1{fill:none;}.cls-2{fill:#ffea51;}.cls-3{font-size:172.63px;fill:#c1272d;font-family:Russian;}.cls-4{clip-path:url(#clip-path);}.cls-5{fill:#1833bc;}.cls-6{fill:#c6180e;}</style><clipPath id="clip-path" transform="translate(-275.7 -59.64)"><rect class="cls-1" x="289" y="45.96" width="1150" height="1150"/></clipPath></defs><title>Mascot sticker</title><g id="Layer_3" data-name="Layer 3"><path class="cls-2" d="M365.64,622.47c0-264.69,222.22-486,498.36-486S1375.64,335.88,1375.64,621c0,4.86.42,113.37-13.67,159.58-7.81,25.61-104-9-107.71,1.51-39.46,111.84-176.85,260.42-388.62,260.42-181.21,0-325.4-111-388.61-260.42-3-7.07-90.21,21.85-97.09-1.51C360.14,713.36,365.64,628.35,365.64,622.47Z" transform="translate(-275.7 -59.64)"/></g><g id="Layer_1" data-name="Layer 1"><text class="cls-3" transform="matrix(-0.12, -0.99, 0.99, -0.12, 266.15, 668.58)">y</text><text class="cls-3" transform="matrix(0.12, -0.99, 0.99, 0.12, 256.2, 591.01)">e</text><text class="cls-3" transform="translate(264.79 513.27) rotate(-69.81)">l</text><text class="cls-3" transform="matrix(0.55, -0.83, 0.83, 0.55, 291.41, 439.69)">l</text><text class="cls-3" transform="matrix(0.73, -0.68, 0.68, 0.73, 334.42, 374.3)">o</text><text class="cls-3" transform="matrix(0.87, -0.49, 0.49, 0.87, 391.45, 320.8)">w</text><text class="cls-3" transform="matrix(0.94, -0.34, 0.34, 0.94, 462.24, 283.45)"> </text><text class="cls-3" transform="translate(488.74 271.59) rotate(-10.42)">d</text><text class="cls-3" transform="translate(565.6 256.98) rotate(3.13)">u</text><text class="cls-3" transform="translate(643.69 260.83) rotate(16.73)">b</text><text class="cls-3" transform="matrix(0.86, 0.5, -0.5, 0.86, 718.75, 282.97)">m</text><text class="cls-3" transform="matrix(0.72, 0.69, -0.69, 0.72, 786.61, 321.99)">a</text><text class="cls-3" transform="matrix(0.54, 0.84, -0.84, 0.54, 843.45, 375.69)">r</text><text class="cls-3" transform="translate(886.08 441.26) rotate(70.86)">i</text><text class="cls-3" transform="translate(912.15 515.07) rotate(84.26)">n</text><text class="cls-3" transform="translate(920.4 592.83) rotate(97.87)">e</text></g><g id="Layer_2" data-name="Layer 2"><g class="cls-4"><g class="cls-4"><path class="cls-5" d="M695.9,706.63c-.61-1.07-1.21-2.14-1.82-3.2a.1.1,0,0,0,0,0,13.36,13.36,0,0,1-4.4-5.56c-1.46-3-3.7-5.57-5.6-8.34-.87-1.25-1.83-2.45-2.58-3.77-3.73-6.5-7.53-13-11.05-19.59a63.2,63.2,0,0,1-3.73-9.4c-2.18-6.49-4.15-13.05-6.32-19.55-4-12.08-3.36-24.52-2.94-36.95a107.53,107.53,0,0,1,7.52-35.68.18.18,0,0,1,.07-.08,113,113,0,0,0,32.24-21.81c4.62-4.45,8.84-9.32,13.23-14a.14.14,0,0,1,.24.14q-1.82,6.6-3.61,13.21c-1.82,6.73-4.29,13.36-5.29,20.2-2,14-2.05,27.94,1.31,41.84,2.1,8.67,3.13,17.6,5.26,26.25,2,8,4.07,16.11,7.4,23.6,2.77,6.24,7.4,11.66,11.22,17.44,1.58,2.39,3.13,4.82,4.81,7.14,3.57,4.9,7.21,9.75,10.84,14.6a4.91,4.91,0,0,0,1.06.75c4.12,3.1,7.79,6.79,12.69,9.52a.14.14,0,0,1,.07.11c.23,5.85.47,11.3,2.11,16.69s.92,5.1,7.28,6c3.34.46,3.75,0,5.14-3.15.25-.57.58-1.09,1-1.78a.15.15,0,0,1,.24,0c.34.46.59.68.62.93.11,1,.15,1.95.18,2.92a45.94,45.94,0,0,0,5,20.41c2,3.84,4,8.15,8.65,9.2,3.86.88,7.95.74,11.94,1,.44,0,.91-.42,1.56-.74h0c1.35-.89,2.5-1.7,3.84-2.63,0,0,0,0,0,0,.7-.83,1.52-1.5,1.62-2.25.59-4.64,1.1-9.28,1.43-13.94a3.43,3.43,0,0,0-1.41-2.37c-4.75-3.6-6.45-8.53-6.58-14.26-.1-3.91-.37-7.81-.51-12v0c.05-.69.05-1.15.15-1.88a43.81,43.81,0,0,0,.46-4.75c.06-4.83-1.16-6.58-5.83-8.59a.15.15,0,0,1-.06,0c-.8-1.12-1.51-2.07-2.27-3.25-2.55-3.73-5.07-7.24-7.66-10.94h0c-1.7-2.08-3.31-4-4.81-6a.12.12,0,0,1,0-.17c2.17-2.55,4.24-5,6.49-7.25a.14.14,0,0,1,.22,0A117,117,0,0,1,792,675.65c2.45,5.06,4.68,10.2,8.19,14.31a.14.14,0,0,0,.22,0l9-11.8a.14.14,0,0,0,0-.14c-2-4.29-4.16-8.93-6.33-13.56-.5-1.07-1.08-2.1-1.55-3.17-1.4-3.22-2.76-6.46-4-9.86a.16.16,0,0,1,0-.16c3.65-2.93,7.15-5.65,10.58-8.45,12.51-10.23,26.21-17.61,42.54-20a86.15,86.15,0,0,1,44.52,4.91c13.48,5.24,24.27,14.66,35.1,23.9a.15.15,0,0,1,0,.18,31.32,31.32,0,0,0-1.53,3c-1.27,3.07-2.4,6.21-3.77,9.23-2.19,4.86-4.54,9.64-6.62,14a.16.16,0,0,0,0,.15l9.14,11.79a.13.13,0,0,0,.22,0c3.37-4.37,5.75-9.35,8.15-14.39a80.25,80.25,0,0,1,7-11,.15.15,0,0,1,.23,0c2.2,2.55,4.22,5,6,7.51a.15.15,0,0,1,0,.18c-1.71,2-3.21,3.92-4.93,5.92h0c-2.63,3.8-5,7.52-7.58,11.36h0c-.83,1-1.51,1.87-2.42,2.83,0,0,0,0,0,0-4,1.57-5.8,4.06-5.61,8.31.29,6.5.29,13,.12,19.53a16.69,16.69,0,0,1-6.14,13.14,5.41,5.41,0,0,0-1.84,3.77,98.27,98.27,0,0,0,1.22,12c.18,1.14,1.29,2.14,2.09,3.38l0,0c1.31.91,2.53,1.64,3.9,2.6l.06,0a49.21,49.21,0,0,0,7.58.41c5.79-.25,10.2-2.54,13.13-8A51.19,51.19,0,0,0,955,724.54c0-.92.17-1.85.29-2.77l1.11-.15c.56,1.35,1.14,2.72,1.84,4.4a.14.14,0,0,0,.13.09,24.77,24.77,0,0,0,4.21,0c4.9-.83,5.23-.58,6.81-5.84,1.69-5.62,1.68-11.3,1.87-17a.14.14,0,0,1,.06-.11c4.37-3.13,8.84-6.14,13.06-9.45,1.71-1.34,2.93-3.32,4.27-5.08,8.31-11,16.63-22.11,23.19-34.28a69.11,69.11,0,0,0,6-16.54c2.46-10.25,4.12-20.69,6.39-31,1.81-8.21,3.61-16.41,3.27-24.87-.29-7-.13-14.06-1.55-20.81-2.09-9.89-5.41-19.51-8.18-29.26-.72-2.51-1.2-5.1-2.06-7.57-2.07-6-4.3-11.84-6.47-17.76a45.1,45.1,0,0,1-1.58-4.29c-1.6-6.42-5-12-7.67-18-3.75-8.45-7.27-17-10.42-25.7a207.51,207.51,0,0,1-5.86-20.06,30.63,30.63,0,0,1-.86-9.72c.32-4-1.54-6.84-3.87-9.64a16.16,16.16,0,0,1-2.57-3.32,96,96,0,0,1-8-27.85c-1.83-13.56.25-26.72,3-39.87a21.85,21.85,0,0,1,2.3-6.1c4-7.22,8-14.57,13.91-20.46,10.07-10,21.1-18.7,35.55-21.38,3.33-.62,6.92-.14,10.35.21,2.35.25,3,1.73,1.55,3.37A106.64,106.64,0,0,1,1024.59,314c-3,2.51-6.5,4.37-9.82,6.45a19.09,19.09,0,0,0-7.27,8.59,13.93,13.93,0,0,0-1,5.07c-.4,10.17,2,19.89,4.91,29.54,1.8,6,4.35,12,3.45,18.49-.75,5.37-1.37,10.83-2.87,16-2.44,8.47-5.4,16.81-8.44,25.09a22.1,22.1,0,0,0-.82,12.54c1.26,5.83,3.06,11.54,4.64,17.29a4.36,4.36,0,0,0,.39,1c3.65,6.68,7.43,13.29,10.94,20,7.69,14.78,17.12,28.63,23.68,44,2.4,5.61,4.74,11.24,7.2,16.82a41,41,0,0,0,3,5.43c5.27,8.28,8.48,17.44,11.32,26.72,2.13,7,3.83,14.08,5.48,21.18a37.83,37.83,0,0,1,.83,8.44c0,9.91.46,19.87-.39,29.71a62.84,62.84,0,0,1-5.5,20.45,44.06,44.06,0,0,0-1.92,6.58c-2.42,9-7.18,16.78-12.17,24.47a8.84,8.84,0,0,0-1.2,1.95c-1.92,6.05-6.16,10.67-9.6,15.8-1.49,2.24-2.78,4.62-4.18,7.06a.14.14,0,0,0,.21.17c4.46-4,8.82-7.94,13.22-11.84a53.63,53.63,0,0,1,5.2-4.2c6.54-4.43,13.18-8.7,19.71-13.14,6-4.1,12.94-6.14,19.64-8.72,3.12-1.2,6.16-2.63,9.3-3.76a17.27,17.27,0,0,1,4-.52,12.88,12.88,0,0,0,2.81-.28,10.27,10.27,0,0,1,7.55.48,3.22,3.22,0,0,0,1.58.08c.53-.08,1.08-.54,1.54-.44,5.64,1.2,11.38,1.48,15.71,6.65,4,4.74,7.36,9.67,9.39,15.4.93,2.65.71,5.73.91,8.62.32,4.56.58,9.13.82,13.71.1,2,.06,4.07.16,6.1.07,1.45.4,2.89.37,4.33-.14,5.47-.28,11-.64,16.41a7.77,7.77,0,0,0,2,6.37c3.66,3.58,7.19,7.45,11.4,10.26a18.92,18.92,0,0,0,14.8,3,11.78,11.78,0,0,1,1.92-.36c3.65-.18,6.12,1.19,6.48,3.55a7.63,7.63,0,0,1-5.38,8.08c-6.1,1.69-11.81-.18-17.55-1.64-2.23-.57-4.29-1.8-6.47-2.62-4-1.54-7-4.52-10-7.48-2.22-2.26-5-3.91-6.58-7a29.16,29.16,0,0,1-3.33-13c-.14-4,.29-8,.06-12a60.6,60.6,0,0,0-1.56-10.74c-1.48-6-8.82-10.54-15-9.62-3.42.52-7,.55-10.25,1.52-3.52,1-7.16,1.88-10.18,4.46-5.34,4.57-11.27,8.47-16.42,13.23-4.86,4.49-8.93,9.82-13.56,14.58-4,4.14-8.3,8-12.55,12-7.22,6.64-15,12.75-21.67,19.9-10.91,11.71-20.26,24.61-24.68,40.37-2.23,7.93-2.81,16,.16,23.81a36.32,36.32,0,0,0,14.3,17.92,35,35,0,0,0,14.39,5.3c3.47.5,5.17-1,5.19-4.46a12.25,12.25,0,0,0-.77-3.8c-2-6.08-4.3-12.08-6-18.24a56.67,56.67,0,0,1-2-12.47,17.67,17.67,0,0,1,1.85-7.53c5-11.4,14.51-15.93,26.38-16.58,11.61-.64,20.92,4.69,29.21,11.88,4.81,4.18,8.79,9.31,13.16,14a44.06,44.06,0,0,1,3,3.29.16.16,0,0,1,0,.16c-3.56,6.23-7.16,12.1-10.76,18a.13.13,0,0,1-.21,0c-3.82-3.59-7.76-7.07-11.43-10.81s-7.43-6.74-12.36-8.26c-2.67-.82-5.38-1.25-7.54,1.23-1.78,2-1.55,5-.08,8.23,1.74,3.82,3,7.87,4.53,11.77a83.61,83.61,0,0,1,5.4,25c.57,7.36.07,14.31-2.77,21.11a22.88,22.88,0,0,1-8.7,10.66c-5.22,3.51-11,5.09-16.82,6.86a8.26,8.26,0,0,1-2.25.36c-13.38.23-26.56-.94-39.1-6-6.74-2.72-12.44-7-17.73-12-8.12-7.64-15-16.3-22.25-24.75a53.1,53.1,0,0,0-8.52-8c-1.81-1.35-4.35-1.84-6.64-2.39a2.73,2.73,0,0,0-2.38,1.17,3,3,0,0,0,.73,2.53c7.76,8.79,10.89,19.38,12.35,30.71,1,7.65-.92,14.94-2.29,22.34a55.65,55.65,0,0,1-4.33,14.37,61,61,0,0,1-4.18,7l0,0a8,8,0,0,0-1.91,1.54c-4.12,6.3-10.6,8.85-17.41,10.51-5.93,1.45-11.66-.22-17.23-2.37a31.38,31.38,0,0,0-3.64-1h0c-2-1.21-4.09-2.41-6.45-3.87l0,0c-2.17-2-4-3.81-5.95-5.76h0c-3.84-5-4.58-10.65-4.14-16.46.25-3.33,1.18-6.59,1.62-9.91a12.74,12.74,0,0,0-.37-3.38.15.15,0,0,0-.2-.11c-1.19.49-2.83.72-3.32,1.6A54.68,54.68,0,0,0,886,908.07c-1.87,6.06-.83,12.27-.13,18.72v0c-.05,5.18-.06,10.07-.06,15a.14.14,0,0,1-.11.14c-2.46.68-4.11-.29-5.22-2.54-2-4-3.7-8.08-4.07-12.66-.56-6.94-1.85-13.8-1-20.85a29.2,29.2,0,0,1,13.28-21.79,15.26,15.26,0,0,1,11.22-2.44c3.31.5,5.42,2.39,7,5.22,2.65,4.7,2.59,9.81,2.66,14.93a65.33,65.33,0,0,0,.19,6.86c.54,4.46,3.73,7.57,7.52,7.6,4.34,0,7.32-2.62,8-7.44a25.86,25.86,0,0,0-.07-5.83c-1.29-13.3-7.6-24.09-16.77-33.48-6.51-6.67-14.5-10.59-23.34-13-4.92-1.31-9.87-2.84-14.89-3.32-8.8-.86-17.57-.33-26,2.94-3.29,1.28-6.78,2.09-10,3.43a40.54,40.54,0,0,0-14.48,9.34c-5.52,5.82-10.32,12.26-13.31,19.63-2.1,5.17-2.7,11-3.8,16.51a11.61,11.61,0,0,0,.22,4.54c1.27,5.66,3.81,7.25,9.93,6.4,2.53-.35,5.37-4.37,5.56-7.75.2-3.69-.07-7.43.31-11.1a48,48,0,0,1,2-9.13c1.92-6.13,7.56-7.29,13-6.27a11.12,11.12,0,0,1,7,3.68c2.47,3.09,6.26,4.69,8.23,8.54a33.37,33.37,0,0,1,3.85,14c.39,9.5-.12,19-3.61,28a20.19,20.19,0,0,1-3.36,5.18.15.15,0,0,1-.25,0c-1.36-3.68-2.49-7.19-3.58-11V930c.41-4.26.8-8.24,1.11-12.22.5-6.25-1.14-12.1-3.86-17.6-1-2.05-2.27-4.56-6-3.92a.14.14,0,0,0-.11.16c.27,1.77.42,3.5.84,5.16A42.32,42.32,0,0,1,835,914.75c-.28,4.52-2.2,8.08-4.66,11.8l0,0c-3,3.4-6,6.26-10.34,7.31-.71.16-1.28.83-2,1.09-4.55,1.69-9,3.74-13.72,4.85-2.83.66-6-.14-9-.28h0c-9.87-3.76-17.3-10.13-21.42-20-1.19-2.86-3-5.62-3.51-8.6-2.52-13.61-5.14-27.29-.24-41a54.35,54.35,0,0,1,9.39-17.06,10.05,10.05,0,0,0,1.17-2.62.14.14,0,0,0-.09-.19c-1.11-.39-2.23-1.07-3.32-1a13.74,13.74,0,0,0-9.21,4.63c-4.08,4.25-7.63,9-11.48,13.5-2.32,2.7-4.69,5.37-7.21,7.87-4.66,4.62-9.23,9.35-14.22,13.59-7.66,6.52-16.84,9.84-26.66,11.74A101.61,101.61,0,0,1,684.7,902a35.83,35.83,0,0,1-15.82-4.68c-4.45-2.49-9.08-4.91-11.37-9.91-3-6.69-5.43-13.52-4.33-21.08a37.46,37.46,0,0,0,.41-5.29c0-9.56,3.1-18.3,6.9-26.89,1.39-3.14,2.51-6.41,3.62-9.67,1.4-4.09-1-8.91-6.12-8.09a21.14,21.14,0,0,0-11.81,5.87c-4.51,4.45-8.66,9.1-10.81,15.2a4.82,4.82,0,0,1-.85,1.4c-3.19,4.09-6.14,8.42-9.66,12.21a118,118,0,0,1-13.15,12.34c-2.91,2.29-6.21,4.59-10.41,4.41-.76,0-1.58.66-2.32,1.09-3.35,2-7,1-10.48.87-1,0-1.93-1.23-2.93-1.82A66.86,66.86,0,0,1,566,851.16,63,63,0,0,1,555.9,833a41.45,41.45,0,0,1-1.39-21.32c.34-1.75.58-3.55,2.87-3.77,1.8-.17,4.28,1.83,4.63,3.9.4,2.36.58,4.75.83,7.14.64,6.09,3.25,11.4,6.43,16.51,2.76,4.43,5.57,8.74,9.71,12.18,3.51,2.91,7.61,3.54,11.71,4.4.78.16,1.84-.49,2.64-1a61,61,0,0,0,16.53-14.36c3.54-4.47,6.42-9.47,9.64-14.2,2.2-3.23,4.34-6.51,6.75-9.58,2.61-3.33,5.6-6.37,8.26-9.66,4.15-5.14,9.67-8.28,15.42-11.2,8.37-4.24,17.09-4.49,25.76-1.75,10.23,3.23,16.77,10.44,18.63,21.08.6,3.47-.49,7.32-1.19,10.92a87,87,0,0,1-2.84,10.34c-1.27,3.9-2.82,7.72-4.18,11.6a8.6,8.6,0,0,0-.5,2.88c0,3.83,1.43,5.08,5.27,4.59a33.43,33.43,0,0,0,17.58-7.9c13.31-11.15,15.09-25.7,11.07-39.56-3.47-11.93-10-22.11-17.63-31.76a131.68,131.68,0,0,0-19-19.67,328,328,0,0,1-33.41-32.23,87.49,87.49,0,0,0-9.41-8.39c-3.57-3-7-6.27-11-8.48-3.84-2.12-8.33-3.12-12.59-4.44-1.32-.41-2.87,0-4.2-.42-4-1.15-7.66,0-11,1.9a11.79,11.79,0,0,0-6.13,8.19,71.54,71.54,0,0,0-1.2,18.55c.43,6.59-.51,13.3-4.88,18.64-2.69,3.3-6.16,6-9.46,8.77-1.68,1.4-3.78,2.29-5.62,3.52-3.86,2.57-8.44,3-12.74,4.25-3.56,1-7.21.69-10.94.19s-6.13-5.13-5.68-8.17a4,4,0,0,1,2.22-2.76,18.62,18.62,0,0,1,6.36-.39,21.38,21.38,0,0,0,8.94-.78c2.6-.81,5.3-1.35,7.27-3.21,4.05-3.84,9.33-6.69,11.23-12.37.67-2,.52-4.38.47-6.59-.1-4.3-.72-8.61-.53-12.9.26-6,1.17-12.05,1.57-18.09.28-4.26-.26-8.61.38-12.8a21.42,21.42,0,0,1,5.52-12c1.68-1.73,2.86-3.93,4.46-5.76a14.62,14.62,0,0,1,10.75-5.44c4.19-.2,8.34-1.16,12.51-1.79.19,0,.38-.21.54-.18,2.78.45,5.61.72,8.32,1.43a62,62,0,0,1,6.57,2.57c5.38,2.09,10.92,3.83,16.09,6.33,4.79,2.31,9.2,5.39,13.75,8.18,2.13,1.31,4.24,2.66,6.25,4.15,4.25,3.16,8.48,6.36,12.62,9.67,3.56,2.85,7,5.86,10.47,8.81,1.09.92,2.15,1.88,3.57,2.92h0a20.44,20.44,0,0,1,2.18,2.8m0,.2a.14.14,0,0,1-.2,0m.2,0h0m0-.2a.14.14,0,0,1,0,.2M922,726.4c.71-2.12,1.76-4.19,2.08-6.37.85-5.87,2.09-11.76.43-17.7-.7-2.52-1.31-5.06-2.1-7.55a19.78,19.78,0,0,0-6.6-9.45c-3.36-2.66-7.3-4.6-11.06-6.72a4,4,0,0,0-2.78-.37c-3.74,1.06-8.58,6.56-8.44,10.54.12,3.67-.63,7.35-.85,11-.39,6.27-.82,12.54-.88,18.82a7.06,7.06,0,0,0,2.14,4.48c3,3,6.32,5.61,9.55,8.33a6.21,6.21,0,0,0,2,1c6.84,2.39,11.9.62,16.5-6.05m-99.65,6.21a6.56,6.56,0,0,0,1.79-.78c3.55-3,7.12-6.05,10.52-9.25a5.94,5.94,0,0,0,1.61-3.44,39,39,0,0,0,.15-7.17c-.55-7.8-1.22-15.6-1.88-23.39-.39-4.54-3.07-7.45-6.84-9.66a5,5,0,0,0-6.24.49,33.11,33.11,0,0,1-6.16,4.18c-5.14,2.36-8,6.57-9.86,11.54a72.89,72.89,0,0,0-2.3,8.83,10.39,10.39,0,0,0-.44,3.2c.45,5,.61,10,1.65,14.83,1.56,7.29,6.63,11.92,13.31,11.35a43.86,43.86,0,0,0,4.69-.73m48.45,17.31c-4.29-2.78-8.64-3.44-13-.22a41.2,41.2,0,0,0-3.17,2.76c-1.6,1.46-3.1,3.06-4.82,4.37s-3.58,1.32-4.82-.62a23,23,0,0,1-2.24-5c-.93-2.77-1.93-3.08-4.83-2.54-3.31.63-4.68,3.63-7.23,5.14-.45.27-.21,1.71-.29,2.61a6.53,6.53,0,0,0,2.26-.39c1.91-1.12,3.72-2.41,5.75-3.75.61,1.76,1,3,1.45,4.21,2.1,5.6,7.37,7.79,12.65,5,2.07-1.09,3.76-2.89,5.63-4.36l5.78-4.5c2,1.33,3.58,2.25,5,3.42,1.76,1.45,3.16,3.39,5,4.61,6.46,4.21,11.16,1.93,14.17-4a35.08,35.08,0,0,0,1.5-4.39c2,1.35,3.75,2.62,5.6,3.68a7.52,7.52,0,0,0,2.52.43c-.18-.76-.1-1.8-.58-2.25a31.75,31.75,0,0,0-5.5-4.55c-4.08-2.4-5.29-1.77-6.63,2.86-.15.52-.24,1.06-.43,1.57-1.46,3.81-4.24,4.68-7.36,2.09-2.17-1.79-4-3.93-6.43-6.2" transform="translate(-275.7 -59.64)"/><path class="cls-5" d="M768.44,657.92c-1.13-1.84-2.16-3.75-3.41-5.51-2.92-4.14-6-8.21-8.92-12.33a10.76,10.76,0,0,1-1.28-2.26c-1.35-3.29-2.54-6.65-4-9.9-1.7-3.84-3.77-7.52-5.37-11.39-2.27-5.48-4.19-11.09-6.37-16.6a50.38,50.38,0,0,1-3.44-20c.09-4.21-.73-8.43-.55-12.62.37-8.59.73-17.2,1.88-25.7.74-5.5,2.24-11.44,6.12-15.38,2.71-2.75,4.38-6.3,7.45-8.68,1-.76,1.13-2.52,2-3.46,3-3.18,6.18-6.25,9.37-9.27s6.17-5.68,9.31-8.46a15.84,15.84,0,0,1,3.39-2.51c5.61-2.71,9.55-7.46,14.19-11.36,6.91-5.82,13.9-11.57,20.5-17.72,3.31-3.09,6-6.91,8.68-10.59,3.26-4.44,6.19-9.12,9.35-13.64,3.35-4.8,6.9-9.42,9.49-14.78,2.06-4.26,5.24-8,7.94-11.93,3.36-4.92,6.52-10,10.2-14.67a15.62,15.62,0,0,1,6.65-4.89c4.34-1.54,8.07.8,10.57,4.1,3.61,4.76,6.53,10,9.92,15,2.77,4,5.94,7.81,8.65,11.88,2.08,3.15,3.49,6.75,5.61,9.86,3.45,5.05,7.29,9.84,10.88,14.8,1.39,1.93,2.34,4.19,3.84,6,3.3,4,6.81,7.9,10.27,11.8,1.43,1.61,3.23,3,4.34,4.76,2.56,4.11,7.18,5.46,10.57,8.42,1.68,1.47,4.06,2.29,5.42,4,3.16,3.89,7.45,6.15,11.37,9,3.56,2.57,6.64,5.78,10,8.66,2.85,2.48,5.91,4.73,8.58,7.39,1.83,1.82,3.12,4.19,4.69,6.28q2.11,2.82,4.32,5.55c1.85,2.28,4,4.34,5.56,6.8a34.08,34.08,0,0,1,5,16.14c.51,8,1.33,15.91,1.65,23.88.18,4.49-.57,9-.59,13.52a46.64,46.64,0,0,1-3.84,18.43c-2.87,6.74-4.9,13.87-8.07,20.45-2.77,5.74-4.88,11.72-7.56,17.47-1,2.22-2.87,4.07-4.28,6.12-2.95,4.26-5.85,8.54-9,13.15-1.52,2-2.86,3.69-4,5.44-.32.48-.19,1.27-.35,2-.09.1-.3.26-.44.07-2.29-3.09-4.44-6-6.46-9.11,3.69-6.11,7.3-12,10.79-17.93,3-5.08,5.8-10.26,8.74-15.37,2-3.47,4.19-6.83,6.13-10.32,6.68-12,7.25-25.13,6.62-38.4-.36-7.47-1.37-14.92-1.53-22.39-.19-8.51-2.88-15.61-9.13-21.53-2.38-2.26-3.69-5.62-5.88-8.14-4.76-5.45-9.73-10.73-14.71-16-1.85-1.95-3.94-3.67-6-5.43-2.69-2.32-5.81-4.25-8.07-6.92-3.91-4.63-9.08-7.41-14-10.82a.56.56,0,0,0-.47-.18,5.12,5.12,0,0,1,.38.82c2.07,3.41,4.27,6.49,6,9.8,2.11,4,3.58,8.24,5.52,12.31A106.74,106.74,0,0,1,940,526.15c2.41,9.88,5.45,19.66,6.16,29.94.31,4.43,2,8.82,1.93,13.22,0,8.09-.71,16.19-1.38,24.26-.74,8.93-3.16,17.51-5.81,26-1.54,5-3.37,9.9-4.77,14.93-.72,2.62-.18,5.65-3.09,7.41-1.49-1-2.77-1.78-4-2.66-13.42-9.59-27.29-18.41-43-23.93a120.16,120.16,0,0,0-18.21-5c-7.14-1.31-14,1.05-20.79,3.13-13.26,4.09-25.37,10.58-36.88,18.23-5.17,3.44-10.3,6.91-15.56,10.19-1.06-1.53-2.75-2.33-2.6-4.46a12.57,12.57,0,0,0-.63-4.41c-2.41-8.1-5.16-16.1-7.31-24.26a99.49,99.49,0,0,1-3.5-18.49c-.65-10-1.7-20.09.74-30.21,1.63-6.8,1.24-14,3.58-20.82,1.19-3.46,1-7.38,2.23-10.83,3-8.75,6.32-17.39,9.75-26,2.49-6.23,5.36-12.31,8-18.43-5.13,3.63-10.24,7.13-14.37,12-2.88,3.4-6.9,5.8-10.23,8.84-2.37,2.17-4.44,4.66-6.66,7-3.13,3.3-6.4,6.49-9.35,9.94-2.81,3.29-5,7.1-8,10.26-3.81,4.1-6.34,8.67-6.89,14.22-.41,4.24-.66,8.51-.87,12.76-.44,8.64-1,17.29-1.13,25.93-.11,8.47,1.2,16.81,5,24.46,3.25,6.44,6.86,12.71,10.46,19,2.9,5,6.06,9.95,9,14.94,2.61,4.34,5.16,8.72,7.65,13.27-2.26,3-4.43,5.88-6.65,8.66a.46.46,0,0,1-.17-.48c-1.38-2.42-2.9-4.62-4.42-6.82" transform="translate(-275.7 -59.64)"/><path class="cls-6" d="M710.85,528.22c-4.51,4.82-8.84,9.85-13.6,14.43A108.11,108.11,0,0,1,665,564.24c-5.66,1.51-11.07,3.47-16.63,4.24-13.88,1.92-26.32-1.1-35.6-12.49-5.33-6.54-7.82-14.29-8.72-22.58-1.69-15.51,1.7-30.22,7.85-44.27,12-27.55,30.4-49.77,56.92-64.59,4.8-2.69,10.21-4.3,15.59-6.14A30.49,30.49,0,0,1,681,422.8c-1.93,2.18-3.85,4.38-6,6.62-5.93,3.44-11.78,6.58-17.25,10.28a76.19,76.19,0,0,0-9.78,8.56c-3,2.95-5.52,6.55-8.81,9.16-4.76,3.78-7.86,8.77-10.79,13.78a133,133,0,0,0-8.19,17.42c-1.52,3.76-2.24,7.85-3.32,11.78l.87.29c2.36-8.72,5.63-17,11.54-24,.28-.33.38-.79.64-1.14,1.22-1.65,2.37-3.39,3.74-4.92,4-4.45,8-8.86,12.09-13.19a115.83,115.83,0,0,1,10.18-10.13,92.63,92.63,0,0,1,11.92-7.73,22.11,22.11,0,0,1-2.41,3.74,36.85,36.85,0,0,0-4.45,3.08,116.75,116.75,0,0,0-9.17,8.75c-5.71,6.41-11.3,12.94-16.62,19.67-1.68,2.13-2.35,5.06-3.66,7.61a1.4,1.4,0,0,0-.58.58s0-.08.14-.1a1.42,1.42,0,0,0,.73-.67c2.16-3,3.87-6.07,6.2-8.59,4-4.38,8.41-8.46,12.77-12.54,3.24-3,6.67-5.85,10-8.5-2.36,4.46-4.43,8.79-7,12.81-5.48,8.62-8.58,18.24-12,27.71a7.7,7.7,0,0,0,1.2,7.74c2.52,2.92,6.31,1.94,8.82-2,.82-1.3,1-3.13,3-3.07a56.91,56.91,0,0,0-.82,7.72c.09,4.06,3.8,6.15,7.62,4.69,4.7-1.79,8.33-5,11.71-8.55a35.42,35.42,0,0,0,9.9-20.57,31.79,31.79,0,0,1,3.47-.74c12.12-1.37,21.6-7.53,28.56-17.12a114.17,114.17,0,0,0,14.12-26.43c.37-1,.82-2,1.23-2.93l.79-.19a67.75,67.75,0,0,1,3.57,6.38c2.68,6.19,3.45,12.78,3.8,19.45a103.38,103.38,0,0,1-8.61,38.36,140.6,140.6,0,0,1-16.74,28.76c-.65.87-1.26,1.78-2,3-.2.46-.3.58-.43.66s0,0,0-.06m-65.7,17.67a11.92,11.92,0,0,1,1.32-.64,4.73,4.73,0,0,1,1.41-.64c2.31-.94,4.79-1.59,6.91-2.86,6.7-4,13.37-8.07,19.85-12.43a77.74,77.74,0,0,0,18.45-17.66c2.09-2.74,5-5,6.68-7.91,3.35-5.71,6.31-11.66,9.09-17.67,1.2-2.6,1.56-5.59,2.3-8.4l-.84-.22c-.27.66-.5,1.34-.8,2a73.07,73.07,0,0,1-4.07,8.51c-2.24,3.56-4.92,6.85-7.48,10.21-1.38,1.8-2.83,3.55-4.36,5.23-4.45,4.86-8.1,10.41-13.35,14.61-5,4-9.23,8.76-14.16,12.76-6,4.89-12.43,9.32-19.11,13.87a2.65,2.65,0,0,1-1.28.7,4.27,4.27,0,0,1-1.14.7l-.47.16c.06,0,.15.11.19.09s.34-.19.86-.41m37.24-42.65a51.15,51.15,0,0,1,3.76-3.61c4.84-3.77,7.47-9.26,11-14.06.84-1.16,1-2.8,1.53-4.22l-.71-.33c-.36.19-.85.3-1.06.6-2.24,3.33-4.42,6.7-6.65,10q-2.43,3.63-4.93,7.2c-1.06,1.5-2.21,2.95-3.37,4.62,0,.1,0,.21,0,.31,0-.19,0-.38.51-.54m3.31,36.09c3.52-2.89,7.11-5.69,10.54-8.68A84,84,0,0,0,715.43,507c1.61-3,3-6.1,4.5-9.16-3.71,4.78-7.06,9.73-10.63,14.51S702,522.14,698,526.67s-8.44,8.46-12.82,12.81c0-.07.05-.13.54-.15m-12.47-20.25c2.35-1.76,5.17-3.15,6.95-5.37,5-6.19,11.23-11.16,15.72-17.86,4-6,6.88-10.84,7.31-15.67L686.73,504a5,5,0,0,1-.45.47c-4.54,4.52-7.68,10.34-13.14,14-.16.1-.21.37-.54.74l-.15.52.27.06a.65.65,0,0,1,.51-.71m-9.43,23.13c.62-.44,1.25-.87,1.87-1.32,5.56-4,11.09-8,16.68-12a30.53,30.53,0,0,1,6.34-3.46,19.12,19.12,0,0,1-2,2.51c-1.93,1.74-3.9,3.47-6,5-4.61,3.43-9,7.24-14,10-6.83,3.8-14.15,6.68-21.17,10.14-4.37,2.14-8.83,2.11-13.42,1.35-.87-.14-1.73-.34-2.59-.52A24.86,24.86,0,0,0,646,556.12c13.35-2.79,25-9.1,35.72-17.39,6.81-5.27,12.58-11.65,18.26-18,6-6.74,11.3-14,15-22.4,2.43-5.57,5.7-10.73,6.28-17,.36-3.9,1.29-7.73,2-11.6.24-1.39.46-2.79.69-4.19-2.27,4.54-3.89,9.25-5.72,13.87-1.67,4.23-3.5,8.39-5.39,12.53-1.45,3.16-3.09,6.24-4.67,9.34a31.8,31.8,0,0,1-2.8,5.14,8.05,8.05,0,0,1-3.71,2.44c.35-.79.69-1.59,1.06-2.37,2.54-5.53,7.3-10,7.57-16.11-1.37,2.42-2.84,5.31-4.57,8a93.71,93.71,0,0,1-5.45,7.69c-4.14,5.28-7.86,11.05-12.72,15.59-6.88,6.42-14.64,11.89-22,17.8-.9.73-1.64,1.67-2.77,2.64,0,.15,0,.3,0,.45a6.3,6.3,0,0,0,1.12-.33m-2.89,1.53c.05-.07.09-.14.14-.2a.15.15,0,0,0-.14.2" transform="translate(-275.7 -59.64)"/><path class="cls-6" d="M955.2,665.07c.07-.65-.06-1.44.26-1.92,1.19-1.75,2.53-3.4,4-5.21a28.13,28.13,0,0,1,4.64,18.79,4.1,4.1,0,0,0,1,3.77c3.67,4.13,4,9.53,5.16,14.6.54,2.43.57,5,.9,7.76-.13,6-.11,11.72-1.81,17.37-1.58,5.26-1.91,5-6.81,5.84a26,26,0,0,1-4.31,0l-2.08-5-.83.13c-.13,1.1-.33,2.19-.36,3.29a51.19,51.19,0,0,1-6.19,23.06c-2.93,5.43-7.34,7.72-13.13,8a37.44,37.44,0,0,1-7.41-.5c3-2,4.44-4.87,5.6-7.76,2.16-5.41,4.74-10.82,5.75-16.48,1.3-7.33,1.41-14.89,1.7-22.36.25-6.69-.89-13.19-4.44-19.07,2.41-3.72,4.81-7.44,7.56-11.06,4.06,6.43,5.88,13.41,7.23,20.55-.18-3.49-1.07-7-.78-10.33s.22-7.12,4-9L949.5,672c-2.09-2.51-4.17-5-6.51-7.85-3.06-5.66-7.71-9.2-12.4-12.69-11-9.08-21.81-18.53-35.33-23.79a86.15,86.15,0,0,0-44.52-4.91c-16.33,2.4-30,9.78-42.54,20-3.46,2.82-7,5.56-10.81,8.62-5,3.81-9.69,7.36-12.34,12.83-2.13,2.46-4.25,4.93-6.68,7.72-1.92,2.7-3.54,5.06-5,7.29,5.59,5.88,3.92,12.75,3,19.56,1.21-7.39,3.26-14.38,7.22-20.71,2.51,3.51,5,7,7.46,11a34.36,34.36,0,0,0-4.23,16.42c.13,10.62-.46,21.37,3.34,31.58a158.53,158.53,0,0,0,6.41,14.57c.66,1.34,2.32,2.18,3.52,3.25-.46.23-.93.69-1.37.66-4-.23-8.08-.09-11.94-1-4.67-1.05-6.63-5.36-8.65-9.2A45.94,45.94,0,0,1,773,725c0-1-.07-2-.18-2.92,0-.28-.34-.52-.75-1.11-.44.79-.81,1.36-1.08,2-1.39,3.17-1.8,3.61-5.14,3.15-6.36-.88-5.67-.68-7.28-6s-1.89-10.89-1.88-16.74c.87-5.56,1.6-10.85,2.79-16a16.16,16.16,0,0,1,3.07-6.38,6,6,0,0,0,1.23-5c-.68-6.36,1.21-12.18,4.43-17.85a32.17,32.17,0,0,1,4.47,6.77c-2.49,4.42-4.8,8.5-4,13.43,1.25-4.39,1.18-9.22,4.35-13,2.16-2.85,4.33-5.69,6.79-8.84,3.56-3.57,6.81-6.85,10.1-10.09,1.53-1.49,3.16-2.88,4.75-4.32,5.15-3.46,10.28-6.93,15.45-10.37,11.51-7.65,23.62-14.14,36.88-18.23,6.75-2.08,13.65-4.44,20.79-3.13a120.16,120.16,0,0,1,18.21,5c15.66,5.52,29.53,14.34,43,23.93,1.24.88,2.52,1.71,4.14,2.8,5.21,4.91,10.07,9.58,14.93,14.25l6.69,9c.73,1.07,1.21,1.79,1.69,2.52l.52-.37-1.78-2.46m-184.45,37.6c-1.08,3.38-2.35,6.71-3.17,10.15-.42,1.74-.16,3.74,1.5,4.68.4-3.54.78-7,1.2-10.56a27.3,27.3,0,0,1,.9-4.58l.4-.13c-.19,0-.38,0-.83.44m-2.43-12.2c-1.1,3.28-2,6.66-3.34,9.82-2.63,6.09-2.22,12.26-1.09,18.51.11.58.7,1.07,1.07,1.6l.74-.25c-.27-1.87-.43-3.77-.83-5.61a26.21,26.21,0,0,1,1-14.41c1.11-3.27,1.88-6.65,2.92-10.33.18-.55.36-1.1.55-1.65l-.31-.07a7.74,7.74,0,0,1-.67,2.39m193.08.74c2.25,9.63,1.41,19.29.21,28.94,4.61-10.88,3-21.61-1-32.26.22.94.43,1.88.75,3.32m-4.66,18.67q-1-2.86-2-5.73l-.41.17q1.23,6.54,2.48,13.09l1.06-.19c-.36-2.27-.72-4.54-1.16-7.34m1.55-34.39.87,2.87.85-.25c-.6-2.68-1.21-5.37-1.82-8.05l-.62.15c.2,1.59.41,3.18.72,5.28" transform="translate(-275.7 -59.64)"/><path class="cls-5" d="M654.76,495.47c-2,.27-2.21,2.1-3,3.4-2.51,4-6.3,5-8.82,2a7.7,7.7,0,0,1-1.2-7.74c3.45-9.47,6.55-19.09,12-27.71,2.56-4,4.63-8.35,7.08-12.94,1.71-3.35,3.25-6.29,4.8-9.24.75-1.13,1.5-2.27,2.36-3.77,1.4-2.14,2.69-3.9,4-5.65l3.28-4.5q2.88-3.28,5.77-6.56c1.22-1.38,2.46-2.75,3.71-4.35,0-.23,0-.23.1-.21.31-.08.41-.23.43-.43,5.63-4.25,11-8.88,17-12.63a100.94,100.94,0,0,1,15.86-7.6c7.12-2.89,18.08,1.27,22.46,8a22.44,22.44,0,0,1,4,10.9,139.52,139.52,0,0,1,.38,17.93c-.3,4.38-1.85,8.69-3,13-.87,3.26-2,6.44-3.15,9.9-.46-6.43-1.23-13-3.91-19.21a67.75,67.75,0,0,0-3.57-6.38l-.79.19c-.41,1-.86,1.94-1.23,2.93a113.82,113.82,0,0,1-14.13,26.43c-6.95,9.59-16.43,15.75-28.55,17.12-1.08.13-2.13.42-3.67.72-1.81.54-3.13,1-4.73,1.42-4.57,1.88-8.88,3.75-13.34,5.74a3.13,3.13,0,0,0-.52.78s0-.05-.2-.07c-1.79,1.44-3.34,2.89-5.08,4.39a12.77,12.77,0,0,0-1.6,1.24l-2.7,2.9" transform="translate(-275.7 -59.64)"/><path class="cls-6" d="M1096.21,836.35c3.67-6.18,7.32-12.12,11.06-18.26,2.1-3.27,4.12-6.31,6.07-9.4a41.75,41.75,0,0,0,3-5.37c1.36-3.12,3.87-4.17,7-4.41,3.68-.29,7.36-.56,11.08,1.79-1.18,1.17-2.22,2.35-3.41,3.33-2.73,2.28-3.1,5.08-.33,7.25a29.2,29.2,0,0,0,7.39,4c1.73.69,3.09-.52,3.88-2.15.36-.75.5-1.93,1.87-.5a6.64,6.64,0,0,1,.39,1.6l.44-.11-.6-1.63-1.25-3.26c-.28,0-.54,0-.65.13-1.12,1.08-2.52,3.28-3.26,3.07a16.19,16.19,0,0,1-5.78-3.42,3.19,3.19,0,0,1-.16-3.09,10,10,0,0,0,2.15-7.22c-.06-1.51,1.61-3.65,3.09-4.54,2.24-1.35,4.93-.71,7.11.75,4.08,2.72,4.46,5.09,1.34,9.74,1.95,1.37,3.77,3.1,5.93,4.1,5.32,2.46,10.82,4.49,16.18,6.86,3.41,1.52,4.24,4.17,3.06,7.71-2.09,6.31-6.37,10.7-11.9,14a8.05,8.05,0,0,1-9.79-1.59c-1.76,2.84-3.43,5.55-5.3,8.66-2.53,3.79-4.77,7.27-7.26,10.57a7.05,7.05,0,0,1-3.52,2.61c-6.86,1.64-11.57-.69-15-6.85s-4.75-12.2-2.74-19.1c1-3.33.92-7.09-2.25-9.59-.9-.71-2.54-.48-3.84-.68,0,1.22-.45,2.9.17,3.6a5.47,5.47,0,0,1,.71,6.7c-2.41,4.23-2.92,8.81-3.58,13.44a16.69,16.69,0,0,0,1.32,9.56c1.23,2.64,2.76,5.14,4.23,7.67,3.32,5.72,8.33,9.33,14.52,11.43-3.5,5.47-6.88,11-10.55,16.39-3.51,5.14-11.13,7.11-16.85,4.74-2.18-.9-4.78-1.17-6.6-2.53-4.57-3.42-9.12-6.94-12.58-11.63-4.65-6.3-3.12-11.47,1-16.06a14.65,14.65,0,0,0,2.48-3.33c3.93-8.22,7.77-16.49,11.66-25m62.23-10.13a6.14,6.14,0,0,1-1.11,1.57,29,29,0,0,0-2.25,5.33c-.51,2.35.88,3.46,3,2.38a23.36,23.36,0,0,0,11.53-11.85c.68-1.61,1.29-3.46-.66-4.66-1.78-1.1-3.47-.1-4.74,1-1.75,1.57-3.22,3.45-5.1,5.39a4,4,0,0,1-.69.81m-34.65-26.15c-5,.21-6.73,2.55-4.88,7.17a32.63,32.63,0,0,0,4.83,8c3.4,4.24,8,6.95,13,9,3.18,1.35,6.46,2.92,10.07,2a3,3,0,0,0,1.9-2.07c0-1.65-1.43-1.06-2.46-1.11a23.49,23.49,0,0,1-5.72-.54,37.79,37.79,0,0,1-14.74-8.73,16.39,16.39,0,0,1-5.36-9.09c-.42-2.14.57-3.1,2.55-3.24,1.27-.08,2.54,0,3.81,0,0-.23,0-.46,0-.69-.82-.22-1.64-.45-3-.7m17.8-1.83a7,7,0,0,0,1.81,1.34,7.46,7.46,0,0,0,2.35-.05c-.21-.76-.19-1.73-.66-2.26a4.31,4.31,0,0,0-5.1-1.43c.5.8.89,1.41,1.6,2.4" transform="translate(-275.7 -59.64)"/><path class="cls-5" d="M1127.9,873.75c-6.47-2.1-11.48-5.71-14.8-11.43-1.47-2.53-3-5-4.23-7.67a16.69,16.69,0,0,1-1.32-9.56c.66-4.63,1.17-9.21,3.58-13.44a5.48,5.48,0,0,0-.71-6.71c-.62-.69-.14-2.37-.17-3.59,1.3.2,2.94,0,3.84.68,3.17,2.5,3.21,6.26,2.25,9.59-2,6.9-.6,13.06,2.74,19.1s8.11,8.49,15,6.85a7.05,7.05,0,0,0,3.52-2.61c2.49-3.3,4.73-6.78,7.17-10.36,1,.69,2.31,1.39,2.7,2.43,1.32,3.53,2.8,7.12,3.32,10.81,1,6.75-3.16,12.62-10.07,14.49a52.79,52.79,0,0,1-6.88,1.8c-1.83.24-3.76-.23-5.91-.38" transform="translate(-275.7 -59.64)"/><path class="cls-6" d="M924,752.33c-.69-1.07-1.82-2.07-2-3.22a98.27,98.27,0,0,1-1.22-12,5.41,5.41,0,0,1,1.84-3.77,16.69,16.69,0,0,0,6.14-13.14c.17-6.51.17-13-.12-19.53-.19-4.26,1.67-6.75,5.79-8.12,1.35,4.1,2.73,8,3.17,12.08a74.18,74.18,0,0,1,0,13.33c-.81,11.23-2.74,22.18-9.17,31.84-1.15,1.73-2.35,2.78-4.47,2.5m-.56-14.17c.45,3.05.19,6.32,2.68,8.72a45.19,45.19,0,0,0-1-7.67c-.14-.65.18-2.52-1.71-1.05" transform="translate(-275.7 -59.64)"/><path class="cls-6" d="M793.48,692.33c4.61,1.84,5.84,3.58,5.78,8.43a20,20,0,0,1-.65,4.63c-1.77-1.27-3.25-2.75-5.72-2.38a27.3,27.3,0,0,1,1.67,4.13,2.43,2.43,0,0,1-1.15-.22c-.11.07-.16.26-.16.67,1.15,1.63,2.15,3.2,4.62,2.68a12.72,12.72,0,0,1-1.57-2.6l2.3,0c.19,3.91.46,7.82.56,11.73.13,5.73,1.83,10.66,6.58,14.26a3.43,3.43,0,0,1,1.41,2.37c-.33,4.66-.84,9.3-1.43,13.94-.1.76-.93,1.42-1.88,2.26-1.49-.34-3-.51-3.45-1.3-2.44-4.47-5.26-8.89-6.74-13.7A87.77,87.77,0,0,1,790,708.78c.15-5.72.53-11.33,3.44-16.45m10,51.5c.19.41.39.82.74,1.55,1.88-2.93,1.91-5.69,1.69-8.48l-.89-.17c-.5,2.2-1,4.39-1.54,7.1" transform="translate(-275.7 -59.64)"/><path class="cls-6" d="M678.2,480.49c-1.82,9.43-7.35,16.49-15,22.08a1.52,1.52,0,0,1-.57.31c-1.22.19-2.63.78-3.6.36-.57-.24-.89-2.26-.55-3.21,1.11-3.16,2.51-6.23,3.91-9.29.54-1.17,1.38-2.21,2-3.55,0-.23-.06-.18.14-.21a2,2,0,0,0,.46-.87c4.3-1.87,8.61-3.74,13.18-5.62m-12.44,9.11c-.19.78-.37,1.57-.56,2.35.49.08,1.18.4,1.44.19,1.46-1.2,2.9-2.49,2.28-5.37-1.18,1-2,1.72-3.16,2.83" transform="translate(-275.7 -59.64)"/><path class="cls-5" d="M906.49,724.77a26.49,26.49,0,0,1-.25-3.81,2.35,2.35,0,0,1,2.42-2.55c2.68,0,3-1.64,3.51-3.73a71.41,71.41,0,0,1,3.21-9.11c.28-.68,1.21-1.1,2-1.81,2.75,5.51,2.22,11,1.42,16.42a23.82,23.82,0,0,1-1,3.77c-1.06,3.26-3.52,4.22-6.73,4.36-2.58.12-3.75-1.19-4.62-3.54" transform="translate(-275.7 -59.64)"/><path class="cls-5" d="M815.81,714.75c.17,2.43,1.13,3.65,3.48,3.66,1.7,0,2.51,1.07,2.43,2.78,0,.32,0,.65,0,1,.06,3.36-1.11,5.51-3.27,6.06-3.09.79-7.12-.8-8.1-3.63-2.37-6.8-2.82-13.67-.06-20.89,4,2.78,4.85,6.71,5.5,11" transform="translate(-275.7 -59.64)"/><path class="cls-6" d="M796,707.5a1.27,1.27,0,0,1-1.22-.22,1.27,1.27,0,0,1,1.22.22" transform="translate(-275.7 -59.64)"/><path class="cls-6" d="M691.42,521.78c3.13-4.21,6.49-8.36,10.08-12.53.24.33.42.8.25,1-3.34,3.88-6.72,7.74-10.33,11.54" transform="translate(-275.7 -59.64)"/><path class="cls-6" d="M680.11,484.4c-.74,5.63-4.11,9.87-7.56,14a22.41,22.41,0,0,1-4,3.56.85.85,0,0,1-.5-.23,54.26,54.26,0,0,0,11.92-17.24c.2-.1.17-.12.17-.12" transform="translate(-275.7 -59.64)"/><path class="cls-6" d="M656.41,497.36c0,.86,0,1.72-.11,2.59-.34,4.16.34,5.19,4.24,6.28-2.93.55-4.61-.29-5-3-.23-1.75.35-3.6.71-5.6.15-.2.13-.22.12-.24" transform="translate(-275.7 -59.64)"/><path class="cls-6" d="M680.15,484.43c0-.63,0-1.27,0-1.9l.45,0a7.07,7.07,0,0,1-.33,1.73c-.17.11-.14.13-.13.14" transform="translate(-275.7 -59.64)"/><path class="cls-6" d="M667.67,502.74a5.8,5.8,0,0,1-1.14.63c-.19,0-.17,0-.17,0a2.54,2.54,0,0,1,.86-.83.79.79,0,0,1,.45.18" transform="translate(-275.7 -59.64)"/><path class="cls-6" d="M1159.11,826.53c.21-.32.39-.44.6-.73a24.58,24.58,0,0,1,3.44-3.1,4.91,4.91,0,0,1,2.84-.65c-1.8,4.34-5.49,6.76-8.46,9.86l-.64-.36c.37-1.06.73-2.12,1.19-3.39.39-.62.7-1,1-1.63" transform="translate(-275.7 -59.64)"/></g></g></g></svg>